<svg xmlns="http://www.w3.org/2000/svg" enable-background="new 0 0 1600 1200" viewBox="0 0 1600 1200" id="speed-optimization"><linearGradient id="a" x1="1523.021" x2="-147.102" y1="543.438" y2="748.87" gradientUnits="userSpaceOnUse"><stop offset="0" stop-color="#70b"></stop><stop offset="1" stop-color="#00008b"></stop><stop offset="1"></stop></linearGradient><path fill="url(#a)" d="M365 977.73c1.08-240.77 196.57-435.62 437.6-435.62s436.52 194.85 437.6 435.62h346.16c-1.08-431.94-351.56-781.77-783.76-781.77S19.92 545.78 18.84 977.73H365z"></path><path fill="#b800b8" d="M1195.72 787.32c28.2 57.51 44.16 122.11 44.47 190.41h346.16c-.38-152.21-44.15-294.22-119.59-414.32l-271.04 223.91z"></path><linearGradient id="b" x1="826.99" x2="795.173" y1="432.248" y2="1140.922" gradientUnits="userSpaceOnUse"><stop offset="0" stop-color="#1dacff"></stop><stop offset=".136" stop-color="#1ca9fb"></stop><stop offset=".274" stop-color="#1b9fef"></stop><stop offset=".414" stop-color="#188eda"></stop><stop offset=".555" stop-color="#1476bd"></stop><stop offset=".696" stop-color="#0f5898"></stop><stop offset=".839" stop-color="#08326b"></stop><stop offset=".979" stop-color="#010737"></stop><stop offset="1" stop-color="#00002e"></stop></linearGradient><path fill="url(#b)" d="M1255.28 979.06c-2.27-255.71-204.05-462.29-452.68-462.29S352.19 723.35 349.92 979.06h905.36z"></path><linearGradient id="c" x1="802.598" x2="802.598" y1="980.983" y2="526.589" gradientUnits="userSpaceOnUse"><stop offset="0" stop-color="#27004f"></stop><stop offset="1" stop-color="#004c81"></stop></linearGradient><path fill="url(#c)" d="M1241.94 977.73c-2.21-242.19-198.04-437.84-439.34-437.84S365.46 735.54 363.26 977.73h878.68z"></path><g opacity=".7"><linearGradient id="d" x1="1513.921" x2="1513.921" y1="740.198" y2="3.576" gradientUnits="userSpaceOnUse"><stop offset="0" stop-color="#00baff"></stop><stop offset=".61" stop-color="#fff"></stop></linearGradient><path fill="url(#d)" d="M1526.84 966.48h-26.88c.42-5.27.77-11.67 1.06-16.97l26.86 1.23c-.29 5.51-.6 10.28-1.04 15.74z"></path><linearGradient id="e" x1="805.136" x2="805.136" y1="730.457" y2="-40.446" gradientUnits="userSpaceOnUse"><stop offset="0" stop-color="#00baff"></stop><stop offset=".61" stop-color="#fff"></stop></linearGradient><path fill="url(#e)" d="M1501.4 893.33c-.42-10.78-1.15-21.66-2.14-32.34l26.79-2.15c1.04 11.09 1.78 22.39 2.23 33.58l-26.88.91zm-1392.53-.52L82 891.88c.45-11.17 1.21-22.47 2.25-33.58l26.79 2.17a601.08 601.08 0 0 0-2.17 32.34zm1382.56-87.48c-2-10.59-4.31-21.28-6.88-31.76l26.22-5.53c2.67 10.89 5.08 21.99 7.15 32.99l-26.49 4.3zm-1372.51-5.77-26.49.93c2.09-11 4.5-22.1 7.18-32.98l26.22 5.55c-2.58 10.47-4.91 15.91-6.91 26.5zm1349.63-80.13a618.796 618.796 0 0 0-11.56-30.65l25.15-8.82c4.27 10.47 8.31 21.18 12.01 31.84l-25.6 7.63zm-1326.68-.5-25.59-7.65c3.7-10.63 7.74-21.32 12.01-31.76l25.14 8.84c-4.11 10.05-8 20.34-11.56 30.57zm1291.22-81.75c-5.04-9.69-10.42-19.4-15.99-28.86l23.6-11.95c5.79 9.82 11.37 19.91 16.61 29.97l-24.22 10.84zm-1255.74-.36-24.22-10.84c5.23-10.03 10.8-20.09 16.58-29.88l23.6 11.96c-5.56 9.42-10.93 19.1-15.96 28.76zm1208.43-76.57a643.63 643.63 0 0 0-20.09-26.54l21.62-14.83c7.17 8.98 14.19 18.25 20.86 27.57l-22.39 13.8zm-1161.14-.24-22.39-13.81c6.67-9.29 13.68-18.54 20.84-27.52l21.62 14.83c-6.9 8.64-13.65 17.56-20.07 26.5zm1102.96-69.97a666.009 666.009 0 0 0-23.79-23.75l19.25-17.41c8.41 7.99 16.72 16.29 24.7 24.66l-20.16 16.5zm-1044.79-.17-20.15-16.51a700.22 700.22 0 0 1 24.7-24.65l19.24 17.42c-8.11 7.7-16.11 15.68-23.79 23.74zm976.87-62.04a697.739 697.739 0 0 0-27.03-20.52l16.52-19.67c9.51 6.86 18.95 14.03 28.07 21.31l-17.56 18.88zm-908.93-.14L333.2 408.8c9.13-7.29 18.59-14.46 28.1-21.32l16.51 19.68c-9.15 6.6-18.26 13.51-27.06 20.53zm832.53-52.91a707.879 707.879 0 0 0-29.77-16.9l13.46-21.58a734.072 734.072 0 0 1 30.92 17.56l-14.61 20.92zm-756.07-.14L412.6 353.7a742.237 742.237 0 0 1 31-17.58l13.45 21.59a704.719 704.719 0 0 0-29.84 16.93zm672.61-42.73c-10.5-4.55-21.25-8.91-31.96-12.95l10.15-23.09c11.12 4.2 22.29 8.73 33.2 13.45l-11.39 22.59zm-589.04-.15-11.37-22.59c10.94-4.73 22.16-9.27 33.33-13.48l10.13 23.09a714.583 714.583 0 0 0-32.09 12.98zm500.09-31.68a737.839 737.839 0 0 0-33.64-8.77l6.62-24.16c11.68 2.75 23.44 5.82 34.95 9.11l-7.93 23.82zm-410.93-.16-7.91-23.83c11.52-3.29 23.28-6.34 34.96-9.08l6.6 24.17a737.97 737.97 0 0 0-33.65 8.74zm318-20.04a738.818 738.818 0 0 0-34.62-4.4l2.98-24.78c11.98 1.24 24.08 2.78 35.96 4.57l-4.32 24.61zm-225.06-.08-4.3-24.61c11.88-1.78 23.98-3.31 35.96-4.54l2.96 24.78a740.393 740.393 0 0 0-34.62 4.37zm130.02-8.13c-11.61-.27-23.41-.27-34.96-.01l-.65-24.92c11.99-.27 24.24-.27 36.29.01l-.68 24.92z"></path><linearGradient id="f" x1="96.056" x2="96.056" y1="740.199" y2="3.58" gradientUnits="userSpaceOnUse"><stop offset="0" stop-color="#00baff"></stop><stop offset=".61" stop-color="#fff"></stop></linearGradient><path fill="url(#f)" d="M82.92 966.48c-.44-5.49-.26-10.26-.55-15.74l26.86-1.23c.28 5.28.09 11.68.51 16.97H82.92z"></path></g><g><circle cx="1342.25" cy="400.96" r="3.03" fill="#fff"></circle><circle cx="1431.84" cy="349.71" r="3.03" fill="#fff"></circle><circle cx="108.61" cy="1480.57" r="3.03" fill="#fff"></circle><linearGradient id="g" x1="1514.876" x2="721.383" y1="350.332" y2="830.034" gradientUnits="userSpaceOnUse"><stop offset="0" stop-color="#1dacff"></stop><stop offset=".136" stop-color="#1ca9fb"></stop><stop offset=".274" stop-color="#1b9fef"></stop><stop offset=".414" stop-color="#188eda"></stop><stop offset=".555" stop-color="#1476bd"></stop><stop offset=".696" stop-color="#0f5898"></stop><stop offset=".839" stop-color="#08326b"></stop><stop offset=".979" stop-color="#010737"></stop><stop offset="1" stop-color="#00002e"></stop></linearGradient><path fill="url(#g)" d="m727.42 723.71 677.19-340.9-599.4 499.22"></path><linearGradient id="h" x1="1431.034" x2="976.582" y1="356.223" y2="630.337" gradientUnits="userSpaceOnUse"><stop offset="0" stop-color="#1dacff"></stop><stop offset=".136" stop-color="#1ca9fb"></stop><stop offset=".274" stop-color="#1b9fef"></stop><stop offset=".414" stop-color="#188eda"></stop><stop offset=".555" stop-color="#1476bd"></stop><stop offset=".696" stop-color="#0f5898"></stop><stop offset=".839" stop-color="#08326b"></stop><stop offset=".979" stop-color="#010737"></stop><stop offset="1" stop-color="#00002e"></stop></linearGradient><path fill="url(#h)" d="m1095.33 584.54 309.28-201.73-372.99 188.5z"></path><linearGradient id="i" x1="95.84" x2="522.079" y1="1025.967" y2="1025.967" gradientUnits="userSpaceOnUse"><stop offset="0" stop-color="#88aeda"></stop><stop offset=".042" stop-color="#8eadd4"></stop><stop offset=".496" stop-color="#cba895"></stop><stop offset=".828" stop-color="#f1a56d"></stop><stop offset="1" stop-color="#ffa45e"></stop></linearGradient><path fill="url(#i)" d="M457.45 1085.55c-31.46 23.38-105.92 44.84-105.92 44.84s5.96-3.41 15.76-8.25 17.91-15.11 17.91-15.11-20.01 12.2-47.8 21.58c-27.79 9.38-64.95 16.22-64.95 16.22s7.55-3.67 20.8-12.33 36.05-23.75 36.05-23.75-56.87 31.15-143.8 37.13c-34.02 2.34-89.66 14.52-89.66 14.52s26.88-23.18 39.68-36.55c20.31-21.22 43.94-55.33 62.46-76.88 27.57-32.09 84.18-88.54 84.18-88.54l-11.39 5.1c-11.39 5.1-25.16 10.59-25.16 10.59s56.92-54.27 99.3-70.63c47.73-18.44 111.46-10.03 111.46-10.03s5.6 27.25 26.44 62.51c21.54 36.46 39.27 51.29 39.27 51.29s-16.43 42.47-64.63 78.29z"></path><linearGradient id="j" x1="193.269" x2="513.6" y1="1009.254" y2="1009.254" gradientUnits="userSpaceOnUse"><stop offset="0" stop-color="#88cfda"></stop><stop offset=".042" stop-color="#8ed0d4"></stop><stop offset=".496" stop-color="#cbd995"></stop><stop offset=".828" stop-color="#f1df6d"></stop><stop offset="1" stop-color="#ffe15e"></stop></linearGradient><path fill="url(#j)" d="M465.03 1054.04c-23.64 17.57-79.6 33.7-79.6 33.7s4.48-2.56 11.85-6.2c7.36-3.64 13.46-11.36 13.46-11.36s-15.04 9.17-35.92 16.22c-20.89 7.05-48.82 12.19-48.82 12.19s5.67-2.76 15.63-9.26c9.96-6.51 27.09-17.85 27.09-17.85s-42.74 23.41-108.07 27.9c-25.57 1.76-67.38 10.91-67.38 10.91s20.2-17.42 29.82-27.47c15.26-15.95 33.02-41.58 46.94-57.78 20.72-24.12 63.27-66.54 63.27-66.54l-8.56 3.83c-8.56 3.83-18.9 7.96-18.9 7.96s42.78-40.78 74.62-53.08c35.87-13.86 83.76-7.53 83.76-7.53s4.21 20.48 19.87 46.98c16.19 27.4 29.51 38.55 29.51 38.55s-12.35 31.9-48.57 58.83z"></path><linearGradient id="k" x1="838.486" x2="455.025" y1="905.4" y2="405.892" gradientUnits="userSpaceOnUse"><stop offset="0" stop-color="#a1baff"></stop><stop offset=".488" stop-color="#fff"></stop></linearGradient><path fill="url(#k)" d="M500.85 832.15c3.61-5.41 103.98-113 226-176.11 122.02-63.11 177.32-68.52 177.32-68.52s30.65 21.64 61.31 78.14c30.65 56.5 39.67 79.34 37.27 86.56-2.4 7.21-121.42 135.84-251.85 189.34s-145.46 56.5-145.46 56.5-16.23-1.8-34.86-30.05-61.91-98.58-66.72-114.2c-4.81-15.65-3.01-21.66-3.01-21.66z"></path><linearGradient id="l" x1="1073.042" x2="999.09" y1="697.326" y2="576.667" gradientUnits="userSpaceOnUse"><stop offset="0" stop-color="#3d00ba"></stop><stop offset=".745" stop-color="#ce00ff"></stop></linearGradient><path fill="url(#l)" d="M1101.32 580.9c-7.21-10.22-16.83-12.02-75.13-11.42-58.3.6-119.01 19.84-119.01 19.84l.69 1.12c9.03 7.56 33.31 30.43 57.61 75.21 23.07 42.52 33.88 65.98 36.8 78.06l2.27 3.69 10.22-9.62c10.22-9.62 52.29-71.53 67.92-100.38s25.84-46.28 18.63-56.5z"></path><linearGradient id="m" x1="543.527" x2="788.162" y1="1030.498" y2="1030.498" gradientUnits="userSpaceOnUse"><stop offset="0" stop-color="#3d00ba"></stop><stop offset=".745" stop-color="#ce00ff"></stop></linearGradient><path fill="url(#m)" d="m610.25 996.24-66.72 140.65s65.52-27.05 141.85-77.54c76.34-50.49 82.35-58.3 82.35-58.3l20.44-76.94c-.01 0-122.63 56.5-177.92 72.13z"></path><linearGradient id="n" x1="599.153" x2="452.492" y1="797.294" y2="739.591" gradientUnits="userSpaceOnUse"><stop offset="0" stop-color="#3d00ba"></stop><stop offset=".745" stop-color="#ce00ff"></stop></linearGradient><path fill="url(#n)" d="m650.52 702.91-70.33-14.43s-61.91 25.85-113.6 59.51-102.18 71.53-102.18 71.53l141.25 7.21c0 .01 99.78-102.18 144.86-123.82z"></path><linearGradient id="o" x1="575.849" x2="474.875" y1="1012.534" y2="859.27" gradientUnits="userSpaceOnUse"><stop offset="0" stop-color="#270036"></stop><stop offset=".438" stop-color="#4f008b"></stop><stop offset="1" stop-color="#4c24b1"></stop></linearGradient><path fill="url(#o)" d="M570.57 967.99c-18.63-28.25-61.91-98.58-66.72-114.2-1.31-4.25-2.11-7.76-2.61-10.66l-36.46 26.89s-2.4 26.45 30.05 75.73c32.46 49.29 49.29 66.12 57.1 65.52 7.81-.6 41.47-18.03 41.47-18.03l-.69-1.13c-6.1-4.29-13.88-11.6-22.14-24.12z"></path><linearGradient id="p" x1="457.25" x2="529.375" y1="886.821" y2="1013.04" gradientUnits="userSpaceOnUse"><stop offset="0" stop-color="#7633ff"></stop><stop offset=".159" stop-color="#7137ff"></stop><stop offset=".353" stop-color="#6243ff"></stop><stop offset=".568" stop-color="#4957ff"></stop><stop offset=".794" stop-color="#2672ff"></stop><stop offset="1" stop-color="#0090ff"></stop></linearGradient><path fill="url(#p)" d="m467.19 885.64-10.82 7.81s-1.2 16.83 23.44 57.7c24.64 40.87 39.67 55.9 46.28 56.5 6.61.6 11.42-5.41 11.42-5.41s-57.7-64.31-70.32-116.6z"></path><linearGradient id="q" x1="721.058" x2="407.314" y1="787.22" y2="954.909" gradientUnits="userSpaceOnUse"><stop offset="0" stop-color="#7633ff"></stop><stop offset=".132" stop-color="#6342ff"></stop><stop offset=".534" stop-color="#2e6cff"></stop><stop offset=".835" stop-color="#0d86ff"></stop><stop offset="1" stop-color="#0090ff"></stop></linearGradient><path fill="url(#q)" d="m694.39 796.68-54.1 18.63s-83.87 46.53-111.2 63.11c-34.28 20.8-134.64 87.16-134.64 87.16l4.21 9.02L647.5 826.14l54.7-21.04-7.81-8.42z"></path><linearGradient id="r" x1="398.669" x2="702.209" y1="889.848" y2="889.848" gradientUnits="userSpaceOnUse"><stop offset="0" stop-color="#3d00ba"></stop><stop offset=".745" stop-color="#ce00ff"></stop></linearGradient><path fill="url(#r)" d="m398.67 974.6 137.04-63.11s52.63-30.1 69.72-40.87c24.71-15.59 96.77-65.52 96.77-65.52l-57.1 21.64L398.67 974.6z"></path><path d="m940.83 287.58 13.22-5.41s3.34 1.53 6.61 9.02c4.21 9.62 4.81 16.23 4.81 16.23l-13.22 7.21c0-.01-6.61-18.04-11.42-27.05z"></path><linearGradient id="s" x1="767.124" x2="954.914" y1="346.48" y2="346.48" gradientUnits="userSpaceOnUse"><stop offset="0" stop-color="#7633ff"></stop><stop offset=".159" stop-color="#7137ff"></stop><stop offset=".353" stop-color="#6243ff"></stop><stop offset=".568" stop-color="#4957ff"></stop><stop offset=".794" stop-color="#2672ff"></stop><stop offset="1" stop-color="#0090ff"></stop></linearGradient><path fill="url(#s)" d="m819.42 406.59 135.24-81.75s1.6-12.82-3.21-24.04c-4.81-11.22-10.42-14.43-10.42-14.43l-173.91 78.74"></path><linearGradient id="t" x1="740.387" x2="834.154" y1="646.583" y2="341.24" gradientUnits="userSpaceOnUse"><stop offset="0" stop-color="#7633ff"></stop><stop offset=".111" stop-color="#6640ff"></stop><stop offset=".524" stop-color="#2f6bff"></stop><stop offset=".833" stop-color="#0d86ff"></stop><stop offset="1" stop-color="#0090ff"></stop></linearGradient><path fill="url(#t)" d="M758.31 364.71s-26.05 28.65-32.06 59.91c-6.01 31.26-5.41 83.55-7.21 100.98-1.8 17.43-10.82 49.89-16.23 64.92-5.41 15.03-7.21 36.06-7.21 36.06s37.87 4.21 79.94-.6 57.1-10.22 57.1-10.22-2.41-49.29-6.81-65.32c-4.41-16.03-5.61-21.64-5.61-21.64s1.6-6.01 5.61-16.83 24.04-49.29 20.84-64.11c-3.21-14.83-11.22-36.47-18.03-43.68s-9.62-8.41-9.62-8.41-15.63-22.44-26.45-32.86c-10.82-10.42-24.04-9.22-24.04-9.22l-10.22 11.02z"></path><linearGradient id="u" x1="768.35" x2="825.828" y1="491.171" y2="491.171" gradientUnits="userSpaceOnUse"><stop offset="0" stop-color="#70b"></stop><stop offset="1" stop-color="#00008b"></stop><stop offset="1"></stop></linearGradient><path fill="url(#u)" d="M768.35 460.32s7.01 20.44 18.63 34.06c11.62 13.62 35.46 27.65 35.46 27.65l3.38-10.05-55.88-51.66" opacity=".5"></path><linearGradient id="v" x1="758.444" x2="813.387" y1="370.807" y2="370.807" gradientUnits="userSpaceOnUse"><stop offset="0" stop-color="#7633ff"></stop><stop offset=".159" stop-color="#7137ff"></stop><stop offset=".353" stop-color="#6243ff"></stop><stop offset=".568" stop-color="#4957ff"></stop><stop offset=".794" stop-color="#2672ff"></stop><stop offset="1" stop-color="#0090ff"></stop></linearGradient><path fill="url(#v)" d="M813.39 387.96c-5.53-7.49-14.1-18.59-20.82-25.05-10.82-10.42-24.04-9.22-24.04-9.22l-10.08 10.87c7.23 4.43 25.1 7.73 36.53 14.37 6.94 4.04 13.29 6.97 18.41 9.03z"></path><linearGradient id="w" x1="764.119" x2="818.215" y1="546.436" y2="546.436" gradientUnits="userSpaceOnUse"><stop offset="0" stop-color="#70b"></stop><stop offset="1" stop-color="#00008b"></stop><stop offset="1"></stop></linearGradient><path fill="url(#w)" d="M765.32 545.63s12.82-.4 31.26-4.81c18.43-4.41 21.64-7.21 21.64-7.21l-4.01 16.43s-9.22 6.41-22.44 7.61c-13.22 1.2-27.65 1.6-27.65 1.6l1.2-13.62z"></path><path d="M707.62 627.38s3.61 19.23 16.03 26.45c12.42 7.21 24.44 12.82 24.44 12.82l56.9 43.28-90.16 36.47s11.62 27.25 21.24 40.87c9.62 13.63 16.43 20.04 16.43 18.84s56.9-27.65 87.36-39.27c30.45-11.62 45.68-18.43 51.29-30.05 5.61-11.62-6.41-24.84-12.02-35.26-5.61-10.42-43.68-64.11-50.49-71.73-6.81-7.61-12.42-10.02-12.42-10.02s-62.52 12.01-108.6 7.6z"></path><linearGradient id="x" x1="661.937" x2="729.257" y1="803.499" y2="803.499" gradientUnits="userSpaceOnUse"><stop offset="0" stop-color="#270036"></stop><stop offset=".594" stop-color="#4f008b"></stop><stop offset="1" stop-color="#4c24b1"></stop></linearGradient><path fill="url(#x)" d="m714.83 746.39-24.44-.4-28.45 12.82 12.02 28.05 5.61-3.61s2.81 26.85 10.82 44.88 25.64 33.26 29.65 32.86c4.01-.4 7.21-6.81 7.21-6.81s-14.02-23.64-11.22-36.87c2.8-13.22 8.82-34.46 8.82-34.46l4.41-4.81c0 .01-13.63-24.83-14.43-31.65z"></path><path fill="#fff" d="m714.83 746.39-18.46-.3c.93 4.55 2.6 11.56 4.43 13.93 2.52 3.24 17.28 8.41 24.92 21.88l3.53-3.85c.01 0-13.62-24.84-14.42-31.66z"></path><path d="M720.04 861c1.09-.11 2.11-.66 3.03-1.41-7.68-5.04-15.76-14.46-23.46-24.64-11.22-14.83-12.02-45.28-13.62-51.69-1.33-5.33-9.6-23.7-12.34-29.72l-11.7 5.28 12.02 28.05 5.61-3.61s2.81 26.85 10.82 44.88c8 18.03 25.63 33.26 29.64 32.86zM785.46 354.9s-1.2-10.22-1.8-14.43 1.8-25.85 13.52-34.56c11.72-8.72 32.16-9.62 44.48-3.61s23.44 12.92 25.85 17.13c2.4 4.21 3.61 12.02 2.7 14.43-.9 2.4-2.4 2.4-2.4 2.4l-12.62-10.52s-9.32 9.62-9.62 12.02c-.3 2.4-3.31 15.93-3.31 15.93s-5.71-.3-5.71-1.2c0-.9-5.71-16.83-9.92-16.23-4.21.6-9.82-.6-12.32 9.02-.72 2.76-2.1 9.62-2.1 9.62l-18.63 7.51-8.12-7.51z"></path><linearGradient id="y" x1="793.571" x2="866.501" y1="362.862" y2="362.862" gradientUnits="userSpaceOnUse"><stop offset="0" stop-color="#a1baff"></stop><stop offset=".488" stop-color="#fff"></stop></linearGradient><path fill="url(#y)" d="M855.18 325.74s-9.32 9.62-9.62 12.02c-.3 2.4-3.31 15.93-3.31 15.93s-5.71-.3-5.71-1.2c0-.9-5.71-16.83-9.92-16.23-4.21.6-9.82-.6-12.32 9.02-.72 2.76-2.1 9.62-2.1 9.62l-18.63 7.51 24.64 33.16 4.81-2s19.63 6.61 21.44 6.41c1.8-.2 3.81-8.62 3.81-9.42 0-.8 3.41-1.6 4.81-2 1.4-.4-.4-3.41-.4-3.41l3.41-.6 1.2-7.21s2.6 1.2 3.41 1.2c.8 0 4.01-1.4 4.01-1.4l-3.21-22.84 3.61-3.41 1.4-15.23-.36-.79-10.97-9.13z"></path><linearGradient id="z" x1="768.319" x2="957.663" y1="491.066" y2="491.066" gradientUnits="userSpaceOnUse"><stop offset="0" stop-color="#7633ff"></stop><stop offset=".159" stop-color="#7137ff"></stop><stop offset=".353" stop-color="#6243ff"></stop><stop offset=".568" stop-color="#4957ff"></stop><stop offset=".794" stop-color="#2672ff"></stop><stop offset="1" stop-color="#0090ff"></stop></linearGradient><path fill="url(#z)" d="M768.53 458.28s5.21 19.23 52.09 50.89 78.14 50.49 88.96 56.5c10.82 6.01 27.25 20.84 27.25 20.84s9.22-10.42 14.43-20.04c5.21-9.62 6.41-14.43 6.41-14.43s-57.7-39.67-74.93-53.3c-17.23-13.62-40.47-41.27-42.88-46.88-2.4-5.61-2.81-42.88-20.04-52.49-17.23-9.62-36.46 0-44.88 20.44-8.42 20.44-6.41 38.47-6.41 38.47z"></path><path d="m942.34 578.79 14.43 6.01s5.71-5.11 8.72-13.82c3.01-8.72 4.21-12.62 4.21-12.62l-12.02-6.31c-.02 0-9.93 22.24-15.34 26.74z"></path><linearGradient id="A" x1="961.57" x2="1034.3" y1="570.98" y2="570.98" gradientUnits="userSpaceOnUse"><stop offset="0" stop-color="#a1baff"></stop><stop offset=".488" stop-color="#fff"></stop></linearGradient><path fill="url(#A)" d="M969.68 560.76s20.44-2.4 25.55-2.4c5.11 0 15.03 3.01 23.74 6.91 8.72 3.91 15.33 9.92 15.33 11.42s-1.5 3.91-6.31 3.01c-4.81-.9-24.34-5.11-27.65-4.81-3.31.3-19.23 8.72-24.34 8.72S961.57 580 961.57 580s8.11-14.73 8.11-19.24z"></path><linearGradient id="B" x1="954.057" x2="1016.211" y1="278.145" y2="278.145" gradientUnits="userSpaceOnUse"><stop offset="0" stop-color="#a1baff"></stop><stop offset=".488" stop-color="#fff"></stop></linearGradient><path fill="url(#B)" d="M954.06 282.17s9.62-4.61 14.83-7.41c5.21-2.81 16.83-8.82 25.65-12.42 8.82-3.61 20.44-10.02 21.64-6.81s-22.84 17.23-22.84 17.23 8.01 9.62 8.01 11.22-8.41 15.63-8.41 15.63-6.59 2.39-8.82 2c-2.22-.38-7.61-4.81-7.61-4.81l-12.02 3.61c-.01-.01-6.43-14.84-10.43-18.24z"></path></g></svg>