<svg xmlns="http://www.w3.org/2000/svg" xmlns:xlink="http://www.w3.org/1999/xlink" width="48" height="48" id="office"><defs><linearGradient id="b" x1="1056.035" x2="1031.176" y1="544.13" y2="517.701" gradientTransform="translate(-1581.737 211.343) scale(1.53785)" gradientUnits="userSpaceOnUse" xlink:href="#a"></linearGradient><linearGradient id="a"><stop offset="0" stop-color="#5a5a5a"></stop><stop offset="1" stop-color="#656e85"></stop></linearGradient></defs><g transform="translate(0 -1004.362)"><rect width="48" height="48" y="1004.362" fill="url(#b)" rx="10.144" ry="10.144"></rect><path style="line-height:normal;text-indent:0;text-align:start;text-decoration-line:none;text-decoration-style:solid;text-decoration-color:#000;text-transform:none;block-progression:tb;isolation:auto;mix-blend-mode:normal" fill="#fff" fill-rule="evenodd" d="M33.492 1019.364v.024a.5.5 0 0 0-.013 0 .5.5 0 0 0-.149.027.5.5 0 0 0-.033.014.5.5 0 0 0-.002 0l-16.744 5a.5.5 0 0 0-.21.832l2.946 2.946 1.969 1.969a.5.5 0 0 0 .69.101.5.5 0 0 0 .001 0 .5.5 0 0 0 .065-.055c.202-.202.65-.201 1.004.152.341.342.348.764.166.975l-.05.057a.5.5 0 0 0-.028.041.5.5 0 0 0-.002 0 .5.5 0 0 0-.047.084.5.5 0 0 0-.002 0 .5.5 0 0 0-.016.043.5.5 0 0 0-.002 0 .5.5 0 0 0-.01.045.5.5 0 0 0 .19.504l1.963 1.963 2.945 2.945a.5.5 0 0 0 .832-.21l5.008-16.76.004-.01a.5.5 0 0 0 .007-.021.5.5 0 0 0 .014-.051.5.5 0 0 0 .008-.05.5.5 0 0 0 .002-.015.5.5 0 0 0 .002-.037.5.5 0 0 0 0-.014.5.5 0 0 0-.002-.035.5.5 0 0 0-.002-.016.5.5 0 0 0-.006-.035.5.5 0 0 0-.01-.04.5.5 0 0 0-.002-.01.5.5 0 0 0-.004-.011.5.5 0 0 0-.017-.047.5.5 0 0 0-.016-.033.5.5 0 0 0-.006-.012.5.5 0 0 0-.02-.031.5.5 0 0 0-.007-.012.5.5 0 0 0-.006-.01.5.5 0 0 0-.025-.033.5.5 0 0 0-.034-.035.5.5 0 0 0-.039-.033.5.5 0 0 0-.029-.022.5.5 0 0 0-.012-.01.5.5 0 0 0-.039-.023.5.5 0 0 0-.004 0 .5.5 0 0 0-.004 0 .5.5 0 0 0-.042-.018.5.5 0 0 0-.033-.012.5.5 0 0 0-.014 0 .5.5 0 0 0-.035-.012.5.5 0 0 0-.014 0 .5.5 0 0 0-.05-.01.5.5 0 0 0-.036 0zm-2.158 1.696-9.65 8.133-1.69-1.692-2.351-2.351 13.691-4.09zm.994.992-4.09 13.695-2.353-2.353-1.692-1.692 8.135-9.65zm-2.998 1.998-5.209 6.18a2.021 2.021 0 0 0-.974-.967l6.183-5.213zm-12.906 3.72a.5.5 0 0 0-.344.153l-.863.861a.5.5 0 1 0 .707.707l.863-.86a.5.5 0 0 0-.363-.86zm1.736 1.731a.5.5 0 0 0-.004 0 .5.5 0 0 0-.342.152l-.863.864a.5.5 0 1 0 .707.707l.864-.863a.5.5 0 0 0-.362-.862zm-4.324.86a.5.5 0 0 0-.344.15l-3.353 3.352a.5.5 0 0 0 .707.708l3.353-3.353a.5.5 0 0 0-.363-.858zm1.732 1.732a.5.5 0 0 0-.343.152l-1.727 1.725a.5.5 0 1 0 .707.707l1.727-1.725a.5.5 0 0 0-.364-.859zm7.79 2.607a.5.5 0 0 0-.003 0 .5.5 0 0 0-.343.153l-.864.863a.5.5 0 1 0 .707.707l.864-.863a.5.5 0 0 0-.362-.862zm1.732 1.735a.5.5 0 0 0-.344.152l-.863.863a.5.5 0 1 0 .707.707l.863-.863a.5.5 0 0 0-.363-.86zm-4.322.857a.5.5 0 0 0-.344.15l-1.727 1.727a.5.5 0 1 0 .707.707l1.727-1.726a.5.5 0 0 0-.363-.858zm1.732 1.733a.5.5 0 0 0-.344.152l-3.351 3.352a.5.5 0 1 0 .707.707l3.351-3.352a.5.5 0 0 0-.363-.86z" color="#000" font-family="sans-serif" font-weight="400" overflow="visible"></path></g></svg>